{
    "asset" : {
        "generator" : "Khronos glTF Blender I/O v1.7.33",
        "version" : "2.0"
    },
    "scene" : 0,
    "scenes" : [
        {
            "extras" : {
                "ats_settings" : {
                    "num_tiles" : [
                        8,
                        5
                    ],
                    "threads_error" : 0,
                    "prev_engine" : "CYCLES",
                    "prev_device" : "GPU",
                    "prev_border" : 1,
                    "prev_threads" : 1,
                    "prev_choice" : "256",
                    "prev_res" : [
                        1920,
                        1280
                    ],
                    "prev_border_res" : [
                        0.0,
                        0.0,
                        1.0,
                        1.0
                    ],
                    "prev_actual_tile_size" : [
                        240,
                        256
                    ],
                    "first_run" : 0,
                    "is_enabled" : 0
                }
            },
            "name" : "Scene",
            "nodes" : [
                0
            ]
        }
    ],
    "nodes" : [
        {
            "mesh" : 0,
            "name" : "Plane",
            "scale" : [
                10,
                10,
                10
            ],
            "translation" : [
                0,
                -0.8356462717056274,
                0
            ]
        }
    ],
    "materials" : [
        {
            "doubleSided" : true,
            "name" : "sol",
            "pbrMetallicRoughness" : {}
        }
    ],
    "meshes" : [
        {
            "name" : "Plane",
            "primitives" : [
                {
                    "attributes" : {
                        "POSITION" : 0,
                        "NORMAL" : 1,
                        "TEXCOORD_0" : 2
                    },
                    "indices" : 3,
                    "material" : 0
                }
            ]
        }
    ],
    "accessors" : [
        {
            "bufferView" : 0,
            "componentType" : 5126,
            "count" : 3725,
            "max" : [
                1,
                0,
                1
            ],
            "min" : [
                -1,
                0,
                -1
            ],
            "type" : "VEC3"
        },
        {
            "bufferView" : 1,
            "componentType" : 5126,
            "count" : 3725,
            "type" : "VEC3"
        },
        {
            "bufferView" : 2,
            "componentType" : 5126,
            "count" : 3725,
            "type" : "VEC2"
        },
        {
            "bufferView" : 3,
            "componentType" : 5123,
            "count" : 16254,
            "type" : "SCALAR"
        }
    ],
    "bufferViews" : [
        {
            "buffer" : 0,
            "byteLength" : 44700,
            "byteOffset" : 0
        },
        {
            "buffer" : 0,
            "byteLength" : 44700,
            "byteOffset" : 44700
        },
        {
            "buffer" : 0,
            "byteLength" : 29800,
            "byteOffset" : 89400
        },
        {
            "buffer" : 0,
            "byteLength" : 32508,
            "byteOffset" : 119200
        }
    ],
    "buffers" : [
        {
            "byteLength" : 151708,
            "uri" : "abandoned-warehouse-final.bin"
        }
    ]
}
