{
  "accessors": [
    {
      "bufferView": 2,
      "componentType": 5126,
      "count": 18787,
      "max": [
        9.2839279174804688,
        -0.24702432751655579,
        6.4484968185424805
      ],
      "min": [
        -9.1026201248168945,
        -22.829860687255859,
        -9.387364387512207
      ],
      "type": "VEC3"
    },
    {
      "bufferView": 2,
      "byteOffset": 225444,
      "componentType": 5126,
      "count": 18787,
      "max": [
        0.9999992847442627,
        0.9999997615814209,
        0.99999332427978516
      ],
      "min": [
        -0.99999517202377319,
        -0.99999994039535522,
        -0.99999839067459106
      ],
      "type": "VEC3"
    },
    {
      "bufferView": 1,
      "componentType": 5126,
      "count": 18787,
      "max": [
        0.99961197376251221,
        0.99975597858428955
      ],
      "min": [
        0.00024399999529123306,
        0.00040099999750964344
      ],
      "type": "VEC2"
    },
    {
      "bufferView": 0,
      "componentType": 5125,
      "count": 86745,
      "max": [
        18786
      ],
      "min": [
        0
      ],
      "type": "SCALAR"
    },
    {
      "bufferView": 2,
      "byteOffset": 450888,
      "componentType": 5126,
      "count": 10956,
      "max": [
        9.2839279174804688,
        -0.28071960806846619,
        6.5037980079650879
      ],
      "min": [
        -9.0961875915527344,
        -22.542629241943359,
        -9.311223030090332
      ],
      "type": "VEC3"
    },
    {
      "bufferView": 2,
      "byteOffset": 582360,
      "componentType": 5126,
      "count": 10956,
      "max": [
        0.99998998641967773,
        0.99999970197677612,
        0.9999997615814209
      ],
      "min": [
        -0.99997812509536743,
        -0.99999839067459106,
        -0.9999958872795105
      ],
      "type": "VEC3"
    },
    {
      "bufferView": 1,
      "byteOffset": 150296,
      "componentType": 5126,
      "count": 10956,
      "max": [
        0.99946898221969604,
        1.9973139762878418
      ],
      "min": [
        0.00024399999529123306,
        1.0005509853363037
      ],
      "type": "VEC2"
    },
    {
      "bufferView": 0,
      "byteOffset": 346980,
      "componentType": 5125,
      "count": 55980,
      "max": [
        10955
      ],
      "min": [
        0
      ],
      "type": "SCALAR"
    },
    {
      "bufferView": 2,
      "byteOffset": 713832,
      "componentType": 5126,
      "count": 10953,
      "max": [
        9.3447971343994141,
        -0.24736689031124115,
        6.2499074935913086
      ],
      "min": [
        -9.1026201248168945,
        -22.751348495483398,
        -9.311223030090332
      ],
      "type": "VEC3"
    },
    {
      "bufferView": 2,
      "byteOffset": 845268,
      "componentType": 5126,
      "count": 10953,
      "max": [
        0.99999850988388062,
        0.99999982118606567,
        0.99999469518661499
      ],
      "min": [
        -0.99999439716339111,
        -0.99999988079071045,
        -0.99999195337295532
      ],
      "type": "VEC3"
    },
    {
      "bufferView": 1,
      "byteOffset": 237944,
      "componentType": 5126,
      "count": 10953,
      "max": [
        1.9973750114440918,
        0.99975597858428955
      ],
      "min": [
        1.0002440214157104,
        0.00038199999835342169
      ],
      "type": "VEC2"
    },
    {
      "bufferView": 0,
      "byteOffset": 570900,
      "componentType": 5125,
      "count": 56652,
      "max": [
        10952
      ],
      "min": [
        0
      ],
      "type": "SCALAR"
    },
    {
      "bufferView": 2,
      "byteOffset": 976704,
      "componentType": 5126,
      "count": 15116,
      "max": [
        9.3176517486572266,
        -0.24736689031124115,
        6.5037980079650879
      ],
      "min": [
        -9.1243343353271484,
        -22.663387298583984,
        -9.2938461303710938
      ],
      "type": "VEC3"
    },
    {
      "bufferView": 2,
      "byteOffset": 1158096,
      "componentType": 5126,
      "count": 15116,
      "max": [
        0.99999904632568359,
        0.99999994039535522,
        0.99999916553497314
      ],
      "min": [
        -0.9999995231628418,
        -0.99999797344207764,
        -0.99999576807022095
      ],
      "type": "VEC3"
    },
    {
      "bufferView": 1,
      "byteOffset": 325568,
      "componentType": 5126,
      "count": 15116,
      "max": [
        1.9994219541549683,
        1.9206540584564209
      ],
      "min": [
        1.0002440214157104,
        1.0004609823226929
      ],
      "type": "VEC2"
    },
    {
      "bufferView": 0,
      "byteOffset": 797508,
      "componentType": 5125,
      "count": 75867,
      "max": [
        15115
      ],
      "min": [
        0
      ],
      "type": "SCALAR"
    },
    {
      "bufferView": 2,
      "byteOffset": 1339488,
      "componentType": 5126,
      "count": 9903,
      "max": [
        9.2761726379394531,
        -0.33034887909889221,
        6.426537036895752
      ],
      "min": [
        -8.9650564193725586,
        -22.692644119262695,
        -9.387364387512207
      ],
      "type": "VEC3"
    },
    {
      "bufferView": 2,
      "byteOffset": 1458324,
      "componentType": 5126,
      "count": 9903,
      "max": [
        0.99999850988388062,
        0.99999940395355225,
        0.99999886751174927
      ],
      "min": [
        -0.99999845027923584,
        -0.9999958872795105,
        -0.9999992847442627
      ],
      "type": "VEC3"
    },
    {
      "bufferView": 1,
      "byteOffset": 446496,
      "componentType": 5126,
      "count": 9903,
      "max": [
        2.9958500862121582,
        0.99877899885177612
      ],
      "min": [
        2.0002439022064209,
        0.00037200000951997936
      ],
      "type": "VEC2"
    },
    {
      "bufferView": 0,
      "byteOffset": 1100976,
      "componentType": 5125,
      "count": 49503,
      "max": [
        9902
      ],
      "min": [
        0
      ],
      "type": "SCALAR"
    }
  ],
  "asset": {
    "extras": {
      "author": "Azad Balabanian (https://sketchfab.com/azadbal)",
      "license": "CC-BY-4.0 (http://creativecommons.org/licenses/by/4.0/)",
      "source": "https://sketchfab.com/3d-models/elevator-in-berlin-realitiesio-7c759a68446c4bf3b109bfa9cea974ae",
      "title": "Elevator in Berlin - Realities.io"
    },
    "generator": "Sketchfab-10.11.2",
    "version": "2.0"
  },
  "bufferViews": [
    {
      "buffer": 0,
      "byteLength": 1298988,
      "byteOffset": 0,
      "name": "floatBufferViews",
      "target": 34963
    },
    {
      "buffer": 0,
      "byteLength": 525720,
      "byteOffset": 1298988,
      "byteStride": 8,
      "name": "floatBufferViews",
      "target": 34962
    },
    {
      "buffer": 0,
      "byteLength": 1577160,
      "byteOffset": 1824708,
      "byteStride": 12,
      "name": "floatBufferViews",
      "target": 34962
    }
  ],
  "buffers": [
    {
      "byteLength": 3401868,
      "uri": "scene.bin"
    }
  ],
  "extensionsUsed": [
    "KHR_materials_unlit"
  ],
  "images": [
    {
      "uri": "textures/ElevatorCLEAN2_Material_u1_v1_baseColor.jpeg"
    },
    {
      "uri": "textures/ElevatorCLEAN2_Material_u1_v2_baseColor.jpeg"
    },
    {
      "uri": "textures/ElevatorCLEAN2_Material_u2_v1_baseColor.jpeg"
    },
    {
      "uri": "textures/ElevatorCLEAN2_Material_u2_v2_baseColor.jpeg"
    },
    {
      "uri": "textures/ElevatorCLEAN2_Material_u3_v1_baseColor.jpeg"
    }
  ],
  "materials": [
    {
      "doubleSided": false,
      "emissiveFactor": [
        0,
        0,
        0
      ],
      "extensions": {
        "KHR_materials_unlit": {}
      },
      "name": "ElevatorCLEAN2_Material_u1_v1",
      "pbrMetallicRoughness": {
        "baseColorFactor": [
          1,
          1,
          1,
          1
        ],
        "baseColorTexture": {
          "index": 0,
          "texCoord": 0
        },
        "metallicFactor": 0,
        "roughnessFactor": 1
      }
    },
    {
      "doubleSided": false,
      "emissiveFactor": [
        0,
        0,
        0
      ],
      "extensions": {
        "KHR_materials_unlit": {}
      },
      "name": "ElevatorCLEAN2_Material_u1_v2",
      "pbrMetallicRoughness": {
        "baseColorFactor": [
          1,
          1,
          1,
          1
        ],
        "baseColorTexture": {
          "index": 1,
          "texCoord": 0
        },
        "metallicFactor": 0,
        "roughnessFactor": 1
      }
    },
    {
      "doubleSided": false,
      "emissiveFactor": [
        0,
        0,
        0
      ],
      "extensions": {
        "KHR_materials_unlit": {}
      },
      "name": "ElevatorCLEAN2_Material_u2_v1",
      "pbrMetallicRoughness": {
        "baseColorFactor": [
          1,
          1,
          1,
          1
        ],
        "baseColorTexture": {
          "index": 2,
          "texCoord": 0
        },
        "metallicFactor": 0,
        "roughnessFactor": 1
      }
    },
    {
      "doubleSided": false,
      "emissiveFactor": [
        0,
        0,
        0
      ],
      "extensions": {
        "KHR_materials_unlit": {}
      },
      "name": "ElevatorCLEAN2_Material_u2_v2",
      "pbrMetallicRoughness": {
        "baseColorFactor": [
          1,
          1,
          1,
          1
        ],
        "baseColorTexture": {
          "index": 3,
          "texCoord": 0
        },
        "metallicFactor": 0,
        "roughnessFactor": 1
      }
    },
    {
      "doubleSided": false,
      "emissiveFactor": [
        0,
        0,
        0
      ],
      "extensions": {
        "KHR_materials_unlit": {}
      },
      "name": "ElevatorCLEAN2_Material_u3_v1",
      "pbrMetallicRoughness": {
        "baseColorFactor": [
          1,
          1,
          1,
          1
        ],
        "baseColorTexture": {
          "index": 4,
          "texCoord": 0
        },
        "metallicFactor": 0,
        "roughnessFactor": 1
      }
    }
  ],
  "meshes": [
    {
      "primitives": [
        {
          "attributes": {
            "NORMAL": 1,
            "POSITION": 0,
            "TEXCOORD_0": 2
          },
          "indices": 3,
          "material": 0,
          "mode": 4
        }
      ]
    },
    {
      "primitives": [
        {
          "attributes": {
            "NORMAL": 5,
            "POSITION": 4,
            "TEXCOORD_0": 6
          },
          "indices": 7,
          "material": 1,
          "mode": 4
        }
      ]
    },
    {
      "primitives": [
        {
          "attributes": {
            "NORMAL": 9,
            "POSITION": 8,
            "TEXCOORD_0": 10
          },
          "indices": 11,
          "material": 2,
          "mode": 4
        }
      ]
    },
    {
      "primitives": [
        {
          "attributes": {
            "NORMAL": 13,
            "POSITION": 12,
            "TEXCOORD_0": 14
          },
          "indices": 15,
          "material": 3,
          "mode": 4
        }
      ]
    },
    {
      "primitives": [
        {
          "attributes": {
            "NORMAL": 17,
            "POSITION": 16,
            "TEXCOORD_0": 18
          },
          "indices": 19,
          "material": 4,
          "mode": 4
        }
      ]
    }
  ],
  "nodes": [
    {
      "children": [
        1
      ],
      "name": "RootNode (gltf orientation matrix)",
      "rotation": [
        -0.70710678118654746,
        -0,
        -0,
        0.70710678118654757
      ]
    },
    {
      "children": [
        2
      ],
      "matrix": [
        -1,
        0,
        0,
        0,
        0,
        -0.0055428501218557358,
        -0.99998462200164795,
        0,
        0,
        -0.99998462200164795,
        0.0055428501218557358,
        0,
        0.22023200988769531,
        -13.044280052185059,
        -12.972177505493164,
        1
      ],
      "name": "RootNode (model correction matrix)"
    },
    {
      "children": [
        3,
        4,
        5,
        6,
        7
      ],
      "name": "ElevatorCLEAN2.obj.cleaner.materialmerger.gles"
    },
    {
      "mesh": 0,
      "name": ""
    },
    {
      "mesh": 1,
      "name": ""
    },
    {
      "mesh": 2,
      "name": ""
    },
    {
      "mesh": 3,
      "name": ""
    },
    {
      "mesh": 4,
      "name": ""
    }
  ],
  "samplers": [
    {
      "magFilter": 9729,
      "minFilter": 9987,
      "wrapS": 10497,
      "wrapT": 10497
    }
  ],
  "scene": 0,
  "scenes": [
    {
      "name": "OSG_Scene",
      "nodes": [
        0
      ]
    }
  ],
  "textures": [
    {
      "sampler": 0,
      "source": 0
    },
    {
      "sampler": 0,
      "source": 1
    },
    {
      "sampler": 0,
      "source": 2
    },
    {
      "sampler": 0,
      "source": 3
    },
    {
      "sampler": 0,
      "source": 4
    }
  ]
}

